# xmcd
#
# Track frame offsets:
#	150
#	15450
#	33672
#	51795
#	72082
#	87780
#	106495
#	123140
#	138625
#	154602
#	167602
#	185070
# Disc length: 2695 seconds
# Revision: 3
# Processed by: cddbd v1.5.1PL2 Copyright (c) Steve Scherf et al.
#
# Submitted via: libkcddb 0.10
#
DISCID=990a850c
DTITLE=Reba McEntire - Room To Breathe
DYEAR=2003
DGENRE=Country
TTITLE0=Secret
TTITLE1=If I Had Any Sense Left At All
TTITLE2=My Sister
TTITLE3=Once You've Learned To Be Lonely
TTITLE4=Moving Oleta
TTITLE5=Love Revival
TTITLE6=He Gets That From Me
TTITLE7=I'm Gonna Take That Mountain
TTITLE8=Room To Breathe
TTITLE9=Sky Full Of Angels
TTITLE10=Somebody
TTITLE11=It Just Has To Be This Way (Duet With Vince Gill)
EXTD=YEAR: 2003 ID3G: 2
EXTT0=
EXTT1=
EXTT2=
EXTT3=
EXTT4=
EXTT5=
EXTT6=
EXTT7=
EXTT8=
EXTT9=
EXTT10=
EXTT11=
PLAYORDER=
